# xmcd
#
# Track frame offsets:
#	150
#	20253
#	38148
#	53789
#	73110
#	96695
#	113108
#	137397
#	156943
#	176284
#	192784
#
# Disc length: 2851 seconds
#
# Revision: 1
# Processed by: cddbd v1.4PL0 Copyright (c) Steve Scherf et al.
# Submitted via: EasyCDDAExtractor 5.0.6
#
DISCID=8f0b210b
DTITLE=Vudu
DYEAR=2003
DGENRE=R&B
TTITLE0=Blues del Wincofon
TTITLE1=Nada se mueve
TTITLE2=Ella y el
TTITLE3=La torre de Babel
TTITLE4=Escenario Cuadrado
TTITLE5=La Buena Medida
TTITLE6=Domingo
TTITLE7=Ya no se puede vivir
TTITLE8=Rita
TTITLE9=Hay poco y nada que comer
TTITLE10=Soy como un rio
EXTD=
EXTT0=
EXTT1=
EXTT2=
EXTT3=
EXTT4=
EXTT5=
EXTT6=
EXTT7=
EXTT8=
EXTT9=
EXTT10=
PLAYORDER=
